<svg width="123" height="70" viewBox="0 0 123 70" fill="none" xmlns="http://www.w3.org/2000/svg">
<path fill-rule="evenodd" clip-rule="evenodd" d="M32.8725 28.8281H26.7631V11.125H32.8725V28.8281ZM26.6069 6.71875C26.6069 5.80208 26.8621 5.11979 27.3725 4.67188C27.8829 4.22396 28.7058 4 29.8412 4C30.9767 4 31.8048 4.22917 32.3256 4.6875C32.8465 5.14583 33.1069 5.82292 33.1069 6.71875C33.1069 8.51042 32.0183 9.40625 29.8412 9.40625C27.685 9.40625 26.6069 8.51042 26.6069 6.71875ZM6.96875 5.98438H14.9375C18.0417 5.98438 20.3438 6.44792 21.8438 7.375C23.3542 8.29167 24.1094 9.72396 24.1094 11.6719C24.1094 12.9531 23.7812 14.0469 23.125 14.9531C22.4688 15.8594 21.6042 16.4427 20.5312 16.7031V16.8594C21.9479 17.2344 22.974 17.8594 23.6094 18.7344C24.2448 19.6094 24.5625 20.7448 24.5625 22.1406C24.5625 24.2135 23.7812 25.849 22.2188 27.0469C20.6667 28.2344 18.5469 28.8281 15.8594 28.8281H6.96875V5.98438ZM13.1406 14.75H15C15.8854 14.75 16.5677 14.5677 17.0469 14.2031C17.5365 13.8385 17.7812 13.2969 17.7812 12.5781C17.7812 11.2969 16.8125 10.6562 14.875 10.6562H13.1406V14.75ZM13.1406 19.2656V24.0625H15.3125C17.2396 24.0625 18.2031 23.25 18.2031 21.625C18.2031 20.8646 17.9427 20.2812 17.4219 19.875C16.9115 19.4688 16.1667 19.2656 15.1875 19.2656H13.1406ZM52.4012 14.0781V11.125H46.2294C45.8544 11.0625 45.271 10.9948 44.4794 10.9219C43.6877 10.849 43.1304 10.8125 42.8075 10.8125C40.37 10.8125 38.495 11.3438 37.1825 12.4062C35.87 13.4688 35.2137 14.9635 35.2137 16.8906C35.2137 18.1302 35.4742 19.1823 35.995 20.0469C36.5262 20.9115 37.2502 21.5469 38.1669 21.9531C37.2085 22.5365 36.5783 23.0417 36.2762 23.4688C35.9742 23.8854 35.8231 24.3698 35.8231 24.9219C35.8231 25.4219 36.021 25.9271 36.4169 26.4375C36.8231 26.9479 37.2971 27.3177 37.8387 27.5469C35.2137 28.1615 33.9012 29.526 33.9012 31.6406C33.9012 33.2135 34.5783 34.4167 35.9325 35.25C37.2971 36.0938 39.2346 36.5156 41.745 36.5156C45.0679 36.5156 47.646 35.9167 49.4794 34.7188C51.3231 33.5208 52.245 31.8438 52.245 29.6875C52.245 26.3438 50.2606 24.6719 46.2919 24.6719H43.3544C42.5627 24.6719 41.9221 24.5938 41.4325 24.4375C40.9429 24.2708 40.6981 24.0365 40.6981 23.7344C40.6981 23.4948 40.771 23.2396 40.9169 22.9688C41.3023 23.0521 41.8231 23.0938 42.4794 23.0938C45.1356 23.0938 47.1304 22.5677 48.4637 21.5156C49.8075 20.4635 50.4794 18.9844 50.4794 17.0781C50.4794 16.276 50.3127 15.5729 49.9794 14.9688L52.4012 14.0781ZM39.87 32.2344C39.3283 31.9323 39.0575 31.5312 39.0575 31.0312C39.0575 30.5833 39.2815 30.2031 39.7294 29.8906C40.1877 29.5885 40.745 29.4375 41.4012 29.4375H43.7919C44.8023 29.4375 45.5783 29.5312 46.12 29.7188C46.6617 29.9167 46.9325 30.25 46.9325 30.7188C46.9325 31.3021 46.4846 31.776 45.5887 32.1406C44.7033 32.5156 43.521 32.7031 42.0419 32.7031C41.1356 32.7031 40.4117 32.5469 39.87 32.2344ZM42.87 19.6406C41.6096 19.6406 40.9794 18.7344 40.9794 16.9219C40.9794 15.1094 41.6096 14.2031 42.87 14.2031C44.0887 14.2031 44.6981 15.1198 44.6981 16.9531C44.6981 17.849 44.5367 18.5208 44.2137 18.9688C43.9012 19.4167 43.4533 19.6406 42.87 19.6406ZM64.9531 5.98438H58.5V28.8281H66.4688C68.9479 28.8281 70.875 28.2552 72.25 27.1094C72.8637 26.6018 73.3415 26.0063 73.6833 25.323C73.8725 26.3548 74.3166 27.1898 75.0156 27.8281C75.9844 28.7031 77.3177 29.1406 79.0156 29.1406C80.2865 29.1406 81.3438 28.9531 82.1875 28.5781C83.0417 28.1927 83.8958 27.4635 84.75 26.3906H84.875L85.3906 28.8281H87.3125V17.1406C87.3125 15.1406 86.8177 13.6875 85.8281 12.7812C84.849 11.875 83.3385 11.4219 81.2969 11.4219C80.2865 11.4219 79.276 11.5521 78.2656 11.8125C77.2656 12.0729 76.3438 12.4323 75.5 12.8906L76.2969 14.875C78.099 14 79.7135 13.5625 81.1406 13.5625C82.4115 13.5625 83.3333 13.8854 83.9063 14.5312C84.4896 15.1667 84.7813 16.1562 84.7813 17.5V18.5625L81.875 18.6562C77.9539 18.7744 75.4227 19.7196 74.2812 21.492C73.9831 18.9409 72.2644 17.3967 69.125 16.8594V16.7031C70.5729 16.4427 71.6719 15.875 72.4219 15C73.1823 14.1146 73.5625 12.9948 73.5625 11.6406C73.5625 9.68229 72.8854 8.25 71.5312 7.34375C70.1771 6.4375 67.9844 5.98438 64.9531 5.98438ZM65.5312 15.7656H61.1562V8.28125H65.0625C67.0625 8.28125 68.5208 8.56771 69.4375 9.14062C70.3542 9.70312 70.8125 10.625 70.8125 11.9062C70.8125 13.3021 70.401 14.2969 69.5781 14.8906C68.7552 15.474 67.4062 15.7656 65.5312 15.7656ZM61.1562 26.5625V18.0156H65.7031C67.651 18.0156 69.099 18.349 70.0469 19.0156C71.0052 19.6823 71.4844 20.724 71.4844 22.1406C71.4844 23.6615 71.0156 24.7812 70.0781 25.5C69.151 26.2083 67.7656 26.5625 65.9219 26.5625H61.1562ZM83.3281 25.6719C82.4115 26.5573 81.1458 27 79.5313 27C78.5104 27 77.7135 26.7552 77.1406 26.2656C76.5781 25.776 76.2969 25.0625 76.2969 24.125C76.2969 22.9271 76.75 22.0469 77.6563 21.4844C78.5729 20.9115 80.0625 20.5885 82.125 20.5156L84.7188 20.4062V21.9531C84.7188 23.5469 84.2552 24.7865 83.3281 25.6719ZM100.391 28.8281V17.75C100.391 16.3542 100.073 15.3125 99.4375 14.625C98.8021 13.9375 97.8073 13.5938 96.4531 13.5938C94.6615 13.5938 93.349 14.0781 92.5156 15.0469C91.6823 16.0156 91.2656 17.6146 91.2656 19.8438V28.8281H88.6719V11.7031H90.7813L91.2031 14.0469H91.3281C91.8594 13.2031 92.6042 12.5521 93.5625 12.0938C94.5208 11.625 95.5885 11.3906 96.7656 11.3906C98.8281 11.3906 100.38 11.8906 101.422 12.8906C102.464 13.8802 102.984 15.4688 102.984 17.6562V28.8281H100.391ZM118.344 13.3438V11.7031H112.422C111.703 11.4948 110.896 11.3906 110 11.3906C107.938 11.3906 106.344 11.901 105.219 12.9219C104.094 13.9323 103.531 15.375 103.531 17.25C103.531 18.375 103.807 19.375 104.359 20.25C104.922 21.125 105.646 21.7448 106.531 22.1094C105.813 22.5469 105.286 23 104.953 23.4688C104.62 23.9375 104.453 24.4844 104.453 25.1094C104.453 25.6615 104.599 26.1458 104.891 26.5625C105.193 26.9792 105.563 27.2865 106 27.4844C104.792 27.7552 103.854 28.2708 103.188 29.0312C102.521 29.7917 102.188 30.6927 102.188 31.7344C102.188 33.2552 102.792 34.4323 104 35.2656C105.219 36.099 106.948 36.5156 109.188 36.5156C112.104 36.5156 114.323 36.0156 115.844 35.0156C117.365 34.026 118.125 32.5833 118.125 30.6875C118.125 29.1979 117.625 28.0625 116.625 27.2812C115.635 26.5 114.214 26.1094 112.359 26.1094H109.328C108.391 26.1094 107.729 26 107.344 25.7812C106.958 25.5521 106.766 25.2031 106.766 24.7344C106.766 23.849 107.318 23.1146 108.422 22.5312C108.87 22.6146 109.349 22.6562 109.859 22.6562C111.859 22.6562 113.432 22.1562 114.578 21.1562C115.724 20.1562 116.297 18.8177 116.297 17.1406C116.297 16.401 116.182 15.7396 115.953 15.1562C115.724 14.5625 115.464 14.0833 115.172 13.7188L118.344 13.3438ZM105.859 33.8125C105.078 33.3333 104.688 32.6302 104.688 31.7031C104.688 30.651 105.016 29.8438 105.672 29.2812C106.328 28.7188 107.245 28.4375 108.422 28.4375H111.531C113.115 28.4375 114.193 28.6146 114.766 28.9688C115.339 29.3333 115.625 29.9792 115.625 30.9062C115.625 32.0208 115.099 32.901 114.047 33.5469C113.005 34.2031 111.396 34.5312 109.219 34.5312C107.76 34.5312 106.641 34.2917 105.859 33.8125ZM107.109 19.9062C106.432 19.2917 106.094 18.3854 106.094 17.1875C106.094 15.8958 106.422 14.9219 107.078 14.2656C107.734 13.6094 108.672 13.2812 109.891 13.2812C112.453 13.2812 113.734 14.5677 113.734 17.1406C113.734 19.599 112.469 20.8281 109.938 20.8281C108.729 20.8281 107.786 20.5208 107.109 19.9062Z" fill="white"/>
<path d="M12.8098 55.1504C12.8098 56.1152 12.6301 56.9219 12.2707 57.5703C11.9113 58.2148 11.3898 58.7012 10.7062 59.0293C10.0227 59.3535 9.19844 59.5156 8.23359 59.5156H5.85469V50.9492H8.49141C9.37812 50.9492 10.1437 51.1094 10.7883 51.4297C11.4328 51.7461 11.9309 52.2168 12.2824 52.8418C12.634 53.4629 12.8098 54.2324 12.8098 55.1504ZM11.3449 55.1914C11.3449 54.4883 11.2336 53.9102 11.0109 53.457C10.7922 53.0039 10.468 52.668 10.0383 52.4492C9.6125 52.2266 9.08711 52.1152 8.46211 52.1152H7.26094V58.3379H8.25703C9.29219 58.3379 10.0656 58.0742 10.5773 57.5469C11.0891 57.0195 11.3449 56.2344 11.3449 55.1914ZM18.8988 52.9062C19.477 52.9062 19.973 53.0254 20.3871 53.2637C20.8012 53.502 21.1195 53.8398 21.3422 54.2773C21.5648 54.7148 21.6762 55.2383 21.6762 55.8477V56.5859H17.3461C17.3617 57.2148 17.5297 57.6992 17.85 58.0391C18.1742 58.3789 18.6273 58.5488 19.2094 58.5488C19.6234 58.5488 19.9945 58.5098 20.3227 58.4316C20.6547 58.3496 20.9965 58.2305 21.348 58.0742V59.1934C21.0238 59.3457 20.6937 59.457 20.3578 59.5273C20.0219 59.5977 19.6195 59.6328 19.1508 59.6328C18.5141 59.6328 17.9535 59.5098 17.4691 59.2637C16.9887 59.0137 16.6117 58.6426 16.3383 58.1504C16.0687 57.6582 15.934 57.0469 15.934 56.3164C15.934 55.5898 16.057 54.9727 16.3031 54.4648C16.5492 53.957 16.8949 53.5703 17.3402 53.3047C17.7855 53.0391 18.3051 52.9062 18.8988 52.9062ZM18.8988 53.9434C18.4652 53.9434 18.1137 54.084 17.8441 54.3652C17.5785 54.6465 17.4223 55.0586 17.3754 55.6016H20.3285C20.3246 55.2773 20.2699 54.9902 20.1645 54.7402C20.0629 54.4902 19.9066 54.2949 19.6957 54.1543C19.4887 54.0137 19.223 53.9434 18.8988 53.9434ZM29.3883 57.6641C29.3883 58.0898 29.2848 58.4492 29.0777 58.7422C28.8707 59.0352 28.568 59.2578 28.1695 59.4102C27.775 59.5586 27.2906 59.6328 26.7164 59.6328C26.2633 59.6328 25.8727 59.5996 25.5445 59.5332C25.2203 59.4707 24.9137 59.373 24.6246 59.2402V58.0508C24.9332 58.1953 25.2789 58.3203 25.6617 58.4258C26.0484 58.5312 26.4137 58.584 26.7574 58.584C27.2105 58.584 27.5367 58.5137 27.7359 58.373C27.9352 58.2285 28.0348 58.0371 28.0348 57.7988C28.0348 57.6582 27.9937 57.5332 27.9117 57.4238C27.8336 57.3105 27.6852 57.1953 27.4664 57.0781C27.2516 56.957 26.9352 56.8125 26.5172 56.6445C26.107 56.4805 25.7613 56.3164 25.4801 56.1523C25.1988 55.9883 24.9859 55.791 24.8414 55.5605C24.6969 55.3262 24.6246 55.0273 24.6246 54.6641C24.6246 54.0898 24.8512 53.6543 25.3043 53.3574C25.7613 53.0566 26.3648 52.9062 27.1148 52.9062C27.5133 52.9062 27.8883 52.9473 28.2398 53.0293C28.5953 53.1074 28.943 53.2227 29.2828 53.375L28.8492 54.4121C28.5562 54.2832 28.2613 54.1777 27.9645 54.0957C27.6715 54.0098 27.3727 53.9668 27.068 53.9668C26.7125 53.9668 26.441 54.0215 26.2535 54.1309C26.0699 54.2402 25.9781 54.3965 25.9781 54.5996C25.9781 54.752 26.023 54.8809 26.1129 54.9863C26.2027 55.0918 26.357 55.1973 26.5758 55.3027C26.7984 55.4082 27.107 55.5391 27.5016 55.6953C27.8883 55.8438 28.2223 56 28.5035 56.1641C28.7887 56.3242 29.0074 56.5215 29.1598 56.7559C29.3121 56.9902 29.3883 57.293 29.3883 57.6641ZM34.0535 53.0293V59.5156H32.6766V53.0293H34.0535ZM33.3738 50.5449C33.5848 50.5449 33.7664 50.6016 33.9187 50.7148C34.075 50.8281 34.1531 51.0234 34.1531 51.3008C34.1531 51.5742 34.075 51.7695 33.9187 51.8867C33.7664 52 33.5848 52.0566 33.3738 52.0566C33.1551 52.0566 32.9695 52 32.8172 51.8867C32.6687 51.7695 32.5945 51.5742 32.5945 51.3008C32.5945 51.0234 32.6687 50.8281 32.8172 50.7148C32.9695 50.6016 33.1551 50.5449 33.3738 50.5449ZM39.6797 62.3984C38.8008 62.3984 38.127 62.2402 37.6582 61.9238C37.1895 61.6074 36.9551 61.1641 36.9551 60.5938C36.9551 60.1953 37.0801 59.8574 37.3301 59.5801C37.5801 59.3066 37.9375 59.1172 38.4023 59.0117C38.2266 58.9336 38.0742 58.8125 37.9453 58.6484C37.8203 58.4805 37.7578 58.2949 37.7578 58.0918C37.7578 57.8496 37.8262 57.6426 37.9629 57.4707C38.0996 57.2988 38.3047 57.1328 38.5781 56.9727C38.2383 56.8281 37.9648 56.5938 37.7578 56.2695C37.5547 55.9414 37.4531 55.5566 37.4531 55.1152C37.4531 54.6465 37.5527 54.248 37.752 53.9199C37.9512 53.5879 38.2422 53.3359 38.625 53.1641C39.0078 52.9883 39.4707 52.9004 40.0137 52.9004C40.1309 52.9004 40.2578 52.9082 40.3945 52.9238C40.5352 52.9355 40.6641 52.9512 40.7812 52.9707C40.9023 52.9863 40.9941 53.0039 41.0566 53.0234H43.3008V53.791L42.1992 53.9961C42.3047 54.1445 42.3887 54.3145 42.4512 54.5059C42.5137 54.6934 42.5449 54.8984 42.5449 55.1211C42.5449 55.793 42.3125 56.3223 41.8477 56.709C41.3867 57.0918 40.75 57.2832 39.9375 57.2832C39.7422 57.2754 39.5527 57.2598 39.3691 57.2363C39.2285 57.3223 39.1211 57.418 39.0469 57.5234C38.9727 57.625 38.9355 57.7402 38.9355 57.8691C38.9355 57.9746 38.9727 58.0605 39.0469 58.127C39.1211 58.1895 39.2305 58.2363 39.375 58.2676C39.5234 58.2988 39.7031 58.3145 39.9141 58.3145H41.0332C41.7441 58.3145 42.2871 58.4648 42.6621 58.7656C43.0371 59.0664 43.2246 59.5078 43.2246 60.0898C43.2246 60.8281 42.9199 61.3965 42.3105 61.7949C41.7012 62.1973 40.8242 62.3984 39.6797 62.3984ZM39.7324 61.4316C40.2129 61.4316 40.6172 61.3848 40.9453 61.291C41.2734 61.1973 41.5215 61.0625 41.6895 60.8867C41.8574 60.7148 41.9414 60.5098 41.9414 60.2715C41.9414 60.0605 41.8887 59.8984 41.7832 59.7852C41.6777 59.6719 41.5195 59.5938 41.3086 59.5508C41.0977 59.5078 40.8359 59.4863 40.5234 59.4863H39.5039C39.25 59.4863 39.0254 59.5254 38.8301 59.6035C38.6348 59.6855 38.4824 59.8027 38.373 59.9551C38.2676 60.1074 38.2148 60.291 38.2148 60.5059C38.2148 60.8027 38.3457 61.0312 38.6074 61.1914C38.873 61.3516 39.248 61.4316 39.7324 61.4316ZM40.002 56.3809C40.4043 56.3809 40.7031 56.2715 40.8984 56.0527C41.0938 55.8301 41.1914 55.5176 41.1914 55.1152C41.1914 54.6777 41.0898 54.3496 40.8867 54.1309C40.6875 53.9121 40.3906 53.8027 39.9961 53.8027C39.6094 53.8027 39.3145 53.9141 39.1113 54.1367C38.9121 54.3594 38.8125 54.6895 38.8125 55.127C38.8125 55.5215 38.9121 55.8301 39.1113 56.0527C39.3145 56.2715 39.6113 56.3809 40.002 56.3809ZM49.6652 52.9062C50.3957 52.9062 50.9641 53.0957 51.3703 53.4746C51.7805 53.8496 51.9855 54.4531 51.9855 55.2852V59.5156H50.6086V55.543C50.6086 55.0391 50.5051 54.6621 50.298 54.4121C50.091 54.1582 49.7707 54.0312 49.3371 54.0312C48.7082 54.0312 48.2707 54.2246 48.0246 54.6113C47.7824 54.998 47.6613 55.5586 47.6613 56.293V59.5156H46.2844V53.0293H47.3566L47.55 53.9082H47.6262C47.7668 53.6816 47.9406 53.4961 48.1477 53.3516C48.3586 53.2031 48.593 53.0918 48.8508 53.0176C49.1125 52.9434 49.384 52.9062 49.6652 52.9062ZM65.7164 57.1836C65.7164 57.6914 65.5914 58.1289 65.3414 58.4961C65.0953 58.8633 64.7398 59.1445 64.275 59.3398C63.8141 59.5352 63.2633 59.6328 62.6227 59.6328C62.3102 59.6328 62.0113 59.6152 61.7262 59.5801C61.441 59.5449 61.1715 59.4941 60.9176 59.4277C60.6676 59.3574 60.4391 59.2734 60.232 59.1758V57.8516C60.5797 58.0039 60.9684 58.1426 61.398 58.2676C61.8277 58.3887 62.2652 58.4492 62.7105 58.4492C63.0738 58.4492 63.3746 58.4023 63.6129 58.3086C63.8551 58.2109 64.0348 58.0742 64.152 57.8984C64.2691 57.7188 64.3277 57.5098 64.3277 57.2715C64.3277 57.0176 64.2594 56.8027 64.1227 56.627C63.9859 56.4512 63.7789 56.291 63.5016 56.1465C63.2281 55.998 62.8844 55.8398 62.4703 55.6719C62.1891 55.5586 61.9195 55.4297 61.6617 55.2852C61.4078 55.1406 61.1812 54.9707 60.982 54.7754C60.7828 54.5801 60.6246 54.3496 60.5074 54.084C60.3941 53.8145 60.3375 53.498 60.3375 53.1348C60.3375 52.6504 60.4527 52.2363 60.6832 51.8926C60.9176 51.5488 61.2457 51.2852 61.6676 51.1016C62.0934 50.918 62.5895 50.8262 63.1559 50.8262C63.6051 50.8262 64.027 50.873 64.4215 50.9668C64.8199 51.0605 65.2105 51.1934 65.5934 51.3652L65.148 52.4961C64.7965 52.3516 64.4547 52.2363 64.1227 52.1504C63.7945 52.0645 63.4586 52.0215 63.1148 52.0215C62.818 52.0215 62.566 52.0664 62.359 52.1562C62.152 52.2461 61.9937 52.373 61.8844 52.5371C61.7789 52.6973 61.7262 52.8887 61.7262 53.1113C61.7262 53.3613 61.7867 53.5723 61.9078 53.7441C62.0328 53.9121 62.2242 54.0664 62.482 54.207C62.7437 54.3477 63.0797 54.5039 63.4898 54.6758C63.9625 54.8711 64.3629 55.0762 64.691 55.291C65.023 55.5059 65.277 55.7637 65.4527 56.0645C65.6285 56.3613 65.7164 56.7344 65.7164 57.1836ZM68.0496 53.0293H69.5496L70.8797 56.7324C70.9383 56.9004 70.991 57.0664 71.0379 57.2305C71.0887 57.3906 71.1316 57.5488 71.1668 57.7051C71.2059 57.8613 71.2371 58.0176 71.2605 58.1738H71.2957C71.3348 57.9707 71.3895 57.7441 71.4598 57.4941C71.534 57.2402 71.616 56.9863 71.7059 56.7324L72.9832 53.0293H74.4656L71.6824 60.4062C71.5223 60.8281 71.325 61.1875 71.0906 61.4844C70.8602 61.7852 70.5867 62.0117 70.2703 62.1641C69.9539 62.3203 69.5926 62.3984 69.1863 62.3984C68.991 62.3984 68.8211 62.3867 68.6766 62.3633C68.532 62.3438 68.409 62.3223 68.3074 62.2988V61.1973C68.3895 61.2168 68.493 61.2344 68.618 61.25C68.743 61.2656 68.8719 61.2734 69.0047 61.2734C69.2508 61.2734 69.4637 61.2246 69.6434 61.127C69.823 61.0293 69.9754 60.8906 70.1004 60.7109C70.2254 60.5352 70.3289 60.334 70.4109 60.1074L70.6395 59.498L68.0496 53.0293ZM81.6094 57.6641C81.6094 58.0898 81.5059 58.4492 81.2988 58.7422C81.0918 59.0352 80.7891 59.2578 80.3906 59.4102C79.9961 59.5586 79.5117 59.6328 78.9375 59.6328C78.4844 59.6328 78.0938 59.5996 77.7656 59.5332C77.4414 59.4707 77.1348 59.373 76.8457 59.2402V58.0508C77.1543 58.1953 77.5 58.3203 77.8828 58.4258C78.2695 58.5312 78.6348 58.584 78.9785 58.584C79.4316 58.584 79.7578 58.5137 79.957 58.373C80.1562 58.2285 80.2559 58.0371 80.2559 57.7988C80.2559 57.6582 80.2148 57.5332 80.1328 57.4238C80.0547 57.3105 79.9062 57.1953 79.6875 57.0781C79.4727 56.957 79.1562 56.8125 78.7383 56.6445C78.3281 56.4805 77.9824 56.3164 77.7012 56.1523C77.4199 55.9883 77.207 55.791 77.0625 55.5605C76.918 55.3262 76.8457 55.0273 76.8457 54.6641C76.8457 54.0898 77.0723 53.6543 77.5254 53.3574C77.9824 53.0566 78.5859 52.9062 79.3359 52.9062C79.7344 52.9062 80.1094 52.9473 80.4609 53.0293C80.8164 53.1074 81.1641 53.2227 81.5039 53.375L81.0703 54.4121C80.7773 54.2832 80.4824 54.1777 80.1855 54.0957C79.8926 54.0098 79.5938 53.9668 79.2891 53.9668C78.9336 53.9668 78.6621 54.0215 78.4746 54.1309C78.291 54.2402 78.1992 54.3965 78.1992 54.5996C78.1992 54.752 78.2441 54.8809 78.334 54.9863C78.4238 55.0918 78.5781 55.1973 78.7969 55.3027C79.0195 55.4082 79.3281 55.5391 79.7227 55.6953C80.1094 55.8438 80.4434 56 80.7246 56.1641C81.0098 56.3242 81.2285 56.5215 81.3809 56.7559C81.5332 56.9902 81.6094 57.293 81.6094 57.6641ZM87.3117 58.5195C87.4914 58.5195 87.6691 58.5039 87.8449 58.4727C88.0207 58.4375 88.1809 58.3965 88.3254 58.3496V59.3926C88.173 59.459 87.9758 59.5156 87.7336 59.5625C87.4914 59.6094 87.2395 59.6328 86.9777 59.6328C86.6105 59.6328 86.2805 59.5723 85.9875 59.4512C85.6945 59.3262 85.4621 59.1133 85.2902 58.8125C85.1184 58.5117 85.0324 58.0957 85.0324 57.5645V54.0781H84.1477V53.4629L85.0969 52.9766L85.548 51.5879H86.4152V53.0293H88.2727V54.0781H86.4152V57.5469C86.4152 57.875 86.4973 58.1191 86.6613 58.2793C86.8254 58.4395 87.0422 58.5195 87.3117 58.5195ZM94.0277 52.9062C94.6059 52.9062 95.102 53.0254 95.516 53.2637C95.9301 53.502 96.2484 53.8398 96.4711 54.2773C96.6938 54.7148 96.8051 55.2383 96.8051 55.8477V56.5859H92.475C92.4906 57.2148 92.6586 57.6992 92.9789 58.0391C93.3031 58.3789 93.7563 58.5488 94.3383 58.5488C94.7523 58.5488 95.1234 58.5098 95.4516 58.4316C95.7836 58.3496 96.1254 58.2305 96.477 58.0742V59.1934C96.1527 59.3457 95.8227 59.457 95.4867 59.5273C95.1508 59.5977 94.7484 59.6328 94.2797 59.6328C93.643 59.6328 93.0824 59.5098 92.5981 59.2637C92.1176 59.0137 91.7406 58.6426 91.4672 58.1504C91.1977 57.6582 91.0629 57.0469 91.0629 56.3164C91.0629 55.5898 91.1859 54.9727 91.432 54.4648C91.6781 53.957 92.0238 53.5703 92.4691 53.3047C92.9145 53.0391 93.434 52.9062 94.0277 52.9062ZM94.0277 53.9434C93.5941 53.9434 93.2426 54.084 92.9731 54.3652C92.7074 54.6465 92.5512 55.0586 92.5043 55.6016H95.4574C95.4535 55.2773 95.3988 54.9902 95.2934 54.7402C95.1918 54.4902 95.0356 54.2949 94.8246 54.1543C94.6176 54.0137 94.352 53.9434 94.0277 53.9434ZM107.488 52.9062C108.214 52.9062 108.761 53.0938 109.129 53.4688C109.5 53.8438 109.685 54.4453 109.685 55.2734V59.5156H108.308V55.5195C108.308 55.0273 108.212 54.6562 108.021 54.4062C107.83 54.1562 107.539 54.0312 107.148 54.0312C106.601 54.0312 106.207 54.207 105.964 54.5586C105.726 54.9062 105.607 55.4121 105.607 56.0762V59.5156H104.23V55.5195C104.23 55.1914 104.187 54.918 104.101 54.6992C104.019 54.4766 103.892 54.3105 103.72 54.2012C103.548 54.0879 103.332 54.0312 103.07 54.0312C102.691 54.0312 102.388 54.1172 102.162 54.2891C101.939 54.4609 101.779 54.7148 101.681 55.0508C101.584 55.3828 101.535 55.791 101.535 56.2754V59.5156H100.158V53.0293H101.23L101.423 53.9023H101.5C101.632 53.6758 101.796 53.4902 101.992 53.3457C102.191 53.1973 102.412 53.0879 102.654 53.0176C102.896 52.9434 103.148 52.9062 103.41 52.9062C103.894 52.9062 104.302 52.9922 104.634 53.1641C104.966 53.332 105.214 53.5898 105.379 53.9375H105.484C105.687 53.5859 105.97 53.3262 106.334 53.1582C106.697 52.9902 107.082 52.9062 107.488 52.9062ZM117.766 57.6641C117.766 58.0898 117.663 58.4492 117.456 58.7422C117.249 59.0352 116.946 59.2578 116.548 59.4102C116.153 59.5586 115.669 59.6328 115.095 59.6328C114.641 59.6328 114.251 59.5996 113.923 59.5332C113.598 59.4707 113.292 59.373 113.003 59.2402V58.0508C113.311 58.1953 113.657 58.3203 114.04 58.4258C114.427 58.5312 114.792 58.584 115.136 58.584C115.589 58.584 115.915 58.5137 116.114 58.373C116.313 58.2285 116.413 58.0371 116.413 57.7988C116.413 57.6582 116.372 57.5332 116.29 57.4238C116.212 57.3105 116.063 57.1953 115.845 57.0781C115.63 56.957 115.313 56.8125 114.895 56.6445C114.485 56.4805 114.139 56.3164 113.858 56.1523C113.577 55.9883 113.364 55.791 113.22 55.5605C113.075 55.3262 113.003 55.0273 113.003 54.6641C113.003 54.0898 113.229 53.6543 113.682 53.3574C114.139 53.0566 114.743 52.9062 115.493 52.9062C115.891 52.9062 116.266 52.9473 116.618 53.0293C116.973 53.1074 117.321 53.2227 117.661 53.375L117.227 54.4121C116.934 54.2832 116.639 54.1777 116.343 54.0957C116.05 54.0098 115.751 53.9668 115.446 53.9668C115.091 53.9668 114.819 54.0215 114.632 54.1309C114.448 54.2402 114.356 54.3965 114.356 54.5996C114.356 54.752 114.401 54.8809 114.491 54.9863C114.581 55.0918 114.735 55.1973 114.954 55.3027C115.177 55.4082 115.485 55.5391 115.88 55.6953C116.266 55.8438 116.6 56 116.882 56.1641C117.167 56.3242 117.386 56.5215 117.538 56.7559C117.69 56.9902 117.766 57.293 117.766 57.6641Z" fill="white"/>
</svg>
