<svg width="122" height="40" viewBox="0 0 122 40" fill="none" xmlns="http://www.w3.org/2000/svg">
<path fill-rule="evenodd" clip-rule="evenodd" d="M32.3725 28.8281H26.2631V11.125H32.3725V28.8281ZM26.1069 6.71875C26.1069 5.80208 26.3621 5.11979 26.8725 4.67188C27.3829 4.22396 28.2058 4 29.3412 4C30.4767 4 31.3048 4.22917 31.8256 4.6875C32.3465 5.14583 32.6069 5.82292 32.6069 6.71875C32.6069 8.51042 31.5183 9.40625 29.3412 9.40625C27.185 9.40625 26.1069 8.51042 26.1069 6.71875ZM6.46875 5.98438H14.4375C17.5417 5.98438 19.8438 6.44792 21.3438 7.375C22.8542 8.29167 23.6094 9.72396 23.6094 11.6719C23.6094 12.9531 23.2812 14.0469 22.625 14.9531C21.9688 15.8594 21.1042 16.4427 20.0312 16.7031V16.8594C21.4479 17.2344 22.474 17.8594 23.1094 18.7344C23.7448 19.6094 24.0625 20.7448 24.0625 22.1406C24.0625 24.2135 23.2812 25.849 21.7188 27.0469C20.1667 28.2344 18.0469 28.8281 15.3594 28.8281H6.46875V5.98438ZM12.6406 14.75H14.5C15.3854 14.75 16.0677 14.5677 16.5469 14.2031C17.0365 13.8385 17.2812 13.2969 17.2812 12.5781C17.2812 11.2969 16.3125 10.6562 14.375 10.6562H12.6406V14.75ZM12.6406 19.2656V24.0625H14.8125C16.7396 24.0625 17.7031 23.25 17.7031 21.625C17.7031 20.8646 17.4427 20.2812 16.9219 19.875C16.4115 19.4688 15.6667 19.2656 14.6875 19.2656H12.6406ZM51.9012 14.0781V11.125H45.7294C45.3544 11.0625 44.771 10.9948 43.9794 10.9219C43.1877 10.849 42.6304 10.8125 42.3075 10.8125C39.87 10.8125 37.995 11.3438 36.6825 12.4062C35.37 13.4688 34.7137 14.9635 34.7137 16.8906C34.7137 18.1302 34.9742 19.1823 35.495 20.0469C36.0262 20.9115 36.7502 21.5469 37.6669 21.9531C36.7085 22.5365 36.0783 23.0417 35.7762 23.4688C35.4742 23.8854 35.3231 24.3698 35.3231 24.9219C35.3231 25.4219 35.521 25.9271 35.9169 26.4375C36.3231 26.9479 36.7971 27.3177 37.3387 27.5469C34.7137 28.1615 33.4012 29.526 33.4012 31.6406C33.4012 33.2135 34.0783 34.4167 35.4325 35.25C36.7971 36.0938 38.7346 36.5156 41.245 36.5156C44.5679 36.5156 47.146 35.9167 48.9794 34.7188C50.8231 33.5208 51.745 31.8438 51.745 29.6875C51.745 26.3438 49.7606 24.6719 45.7919 24.6719H42.8544C42.0627 24.6719 41.4221 24.5938 40.9325 24.4375C40.4429 24.2708 40.1981 24.0365 40.1981 23.7344C40.1981 23.4948 40.271 23.2396 40.4169 22.9688C40.8023 23.0521 41.3231 23.0938 41.9794 23.0938C44.6356 23.0938 46.6304 22.5677 47.9637 21.5156C49.3075 20.4635 49.9794 18.9844 49.9794 17.0781C49.9794 16.276 49.8127 15.5729 49.4794 14.9688L51.9012 14.0781ZM39.37 32.2344C38.8283 31.9323 38.5575 31.5312 38.5575 31.0312C38.5575 30.5833 38.7815 30.2031 39.2294 29.8906C39.6877 29.5885 40.245 29.4375 40.9012 29.4375H43.2919C44.3023 29.4375 45.0783 29.5312 45.62 29.7188C46.1617 29.9167 46.4325 30.25 46.4325 30.7188C46.4325 31.3021 45.9846 31.776 45.0887 32.1406C44.2033 32.5156 43.021 32.7031 41.5419 32.7031C40.6356 32.7031 39.9117 32.5469 39.37 32.2344ZM42.37 19.6406C41.1096 19.6406 40.4794 18.7344 40.4794 16.9219C40.4794 15.1094 41.1096 14.2031 42.37 14.2031C43.5887 14.2031 44.1981 15.1198 44.1981 16.9531C44.1981 17.849 44.0367 18.5208 43.7137 18.9688C43.4012 19.4167 42.9533 19.6406 42.37 19.6406ZM64.4531 5.98438H58V28.8281H65.9688C68.4479 28.8281 70.375 28.2552 71.75 27.1094C72.3637 26.6018 72.8415 26.0063 73.1833 25.323C73.3725 26.3548 73.8166 27.1898 74.5156 27.8281C75.4844 28.7031 76.8177 29.1406 78.5156 29.1406C79.7865 29.1406 80.8438 28.9531 81.6875 28.5781C82.5417 28.1927 83.3958 27.4635 84.25 26.3906H84.375L84.8906 28.8281H86.8125V17.1406C86.8125 15.1406 86.3177 13.6875 85.3281 12.7812C84.349 11.875 82.8385 11.4219 80.7969 11.4219C79.7865 11.4219 78.776 11.5521 77.7656 11.8125C76.7656 12.0729 75.8438 12.4323 75 12.8906L75.7969 14.875C77.599 14 79.2135 13.5625 80.6406 13.5625C81.9115 13.5625 82.8333 13.8854 83.4063 14.5312C83.9896 15.1667 84.2813 16.1562 84.2813 17.5V18.5625L81.375 18.6562C77.4539 18.7744 74.9227 19.7196 73.7812 21.492C73.4831 18.9409 71.7644 17.3967 68.625 16.8594V16.7031C70.0729 16.4427 71.1719 15.875 71.9219 15C72.6823 14.1146 73.0625 12.9948 73.0625 11.6406C73.0625 9.68229 72.3854 8.25 71.0312 7.34375C69.6771 6.4375 67.4844 5.98438 64.4531 5.98438ZM65.0312 15.7656H60.6562V8.28125H64.5625C66.5625 8.28125 68.0208 8.56771 68.9375 9.14062C69.8542 9.70312 70.3125 10.625 70.3125 11.9062C70.3125 13.3021 69.901 14.2969 69.0781 14.8906C68.2552 15.474 66.9062 15.7656 65.0312 15.7656ZM60.6562 26.5625V18.0156H65.2031C67.151 18.0156 68.599 18.349 69.5469 19.0156C70.5052 19.6823 70.9844 20.724 70.9844 22.1406C70.9844 23.6615 70.5156 24.7812 69.5781 25.5C68.651 26.2083 67.2656 26.5625 65.4219 26.5625H60.6562ZM82.8281 25.6719C81.9115 26.5573 80.6458 27 79.0313 27C78.0104 27 77.2135 26.7552 76.6406 26.2656C76.0781 25.776 75.7969 25.0625 75.7969 24.125C75.7969 22.9271 76.25 22.0469 77.1563 21.4844C78.0729 20.9115 79.5625 20.5885 81.625 20.5156L84.2188 20.4062V21.9531C84.2188 23.5469 83.7552 24.7865 82.8281 25.6719ZM99.8906 28.8281V17.75C99.8906 16.3542 99.5729 15.3125 98.9375 14.625C98.3021 13.9375 97.3073 13.5938 95.9531 13.5938C94.1615 13.5938 92.849 14.0781 92.0156 15.0469C91.1823 16.0156 90.7656 17.6146 90.7656 19.8438V28.8281H88.1719V11.7031H90.2813L90.7031 14.0469H90.8281C91.3594 13.2031 92.1042 12.5521 93.0625 12.0938C94.0208 11.625 95.0885 11.3906 96.2656 11.3906C98.3281 11.3906 99.8802 11.8906 100.922 12.8906C101.964 13.8802 102.484 15.4688 102.484 17.6562V28.8281H99.8906ZM117.844 13.3438V11.7031H111.922C111.203 11.4948 110.396 11.3906 109.5 11.3906C107.438 11.3906 105.844 11.901 104.719 12.9219C103.594 13.9323 103.031 15.375 103.031 17.25C103.031 18.375 103.307 19.375 103.859 20.25C104.422 21.125 105.146 21.7448 106.031 22.1094C105.313 22.5469 104.786 23 104.453 23.4688C104.12 23.9375 103.953 24.4844 103.953 25.1094C103.953 25.6615 104.099 26.1458 104.391 26.5625C104.693 26.9792 105.063 27.2865 105.5 27.4844C104.292 27.7552 103.354 28.2708 102.688 29.0312C102.021 29.7917 101.688 30.6927 101.688 31.7344C101.688 33.2552 102.292 34.4323 103.5 35.2656C104.719 36.099 106.448 36.5156 108.688 36.5156C111.604 36.5156 113.823 36.0156 115.344 35.0156C116.865 34.026 117.625 32.5833 117.625 30.6875C117.625 29.1979 117.125 28.0625 116.125 27.2812C115.135 26.5 113.714 26.1094 111.859 26.1094H108.828C107.891 26.1094 107.229 26 106.844 25.7812C106.458 25.5521 106.266 25.2031 106.266 24.7344C106.266 23.849 106.818 23.1146 107.922 22.5312C108.37 22.6146 108.849 22.6562 109.359 22.6562C111.359 22.6562 112.932 22.1562 114.078 21.1562C115.224 20.1562 115.797 18.8177 115.797 17.1406C115.797 16.401 115.682 15.7396 115.453 15.1562C115.224 14.5625 114.964 14.0833 114.672 13.7188L117.844 13.3438ZM105.359 33.8125C104.578 33.3333 104.188 32.6302 104.188 31.7031C104.188 30.651 104.516 29.8438 105.172 29.2812C105.828 28.7188 106.745 28.4375 107.922 28.4375H111.031C112.615 28.4375 113.693 28.6146 114.266 28.9688C114.839 29.3333 115.125 29.9792 115.125 30.9062C115.125 32.0208 114.599 32.901 113.547 33.5469C112.505 34.2031 110.896 34.5312 108.719 34.5312C107.26 34.5312 106.141 34.2917 105.359 33.8125ZM106.609 19.9062C105.932 19.2917 105.594 18.3854 105.594 17.1875C105.594 15.8958 105.922 14.9219 106.578 14.2656C107.234 13.6094 108.172 13.2812 109.391 13.2812C111.953 13.2812 113.234 14.5677 113.234 17.1406C113.234 19.599 111.969 20.8281 109.438 20.8281C108.229 20.8281 107.286 20.5208 106.609 19.9062Z" fill="black"/>
</svg>
