<svg width="112" height="112" viewBox="0 0 112 112" fill="none" xmlns="http://www.w3.org/2000/svg">
<path d="M0 4C0 1.79086 1.79086 0 4 0H108C110.209 0 112 1.79086 112 4V108C112 110.209 110.209 112 108 112H4C1.79086 112 0 110.209 0 108V4Z" fill="#D1E5FA"/>
<path d="M55.5977 21.4446C54.2955 20.1978 55.178 18 56.9809 18H96C97.1046 18 98 18.8954 98 20V59.0191C98 60.822 95.8022 61.7045 94.5554 60.4023L75.5 40.5L55.5977 21.4446Z" fill="#76B2EF"/>
<path d="M13.5977 63.4446C12.2955 62.1978 13.178 60 14.9809 60H54C55.1046 60 56 60.8954 56 62V101.019C56 102.822 53.8022 103.704 52.5554 102.402L33.5 82.5L13.5977 63.4446Z" fill="#1566B7"/>
<path d="M36.5977 44.4446C35.2955 43.1978 36.178 41 37.9809 41H77C78.1046 41 79 41.8954 79 43V82.0191C79 83.822 76.8022 84.7045 75.5554 83.4023L56.5 63.5L36.5977 44.4446Z" fill="#FFB866"/>
</svg>
