<svg width="112" height="112" viewBox="0 0 112 112" fill="none" xmlns="http://www.w3.org/2000/svg">
<path d="M0 4C0 1.79086 1.79086 0 4 0H108C110.209 0 112 1.79086 112 4V108C112 110.209 110.209 112 108 112H4C1.79086 112 0 110.209 0 108V4Z" fill="#D1E5FA"/>
<path d="M15 55C15 52.7909 16.7909 51 19 51H48V84H19C16.7909 84 15 82.2091 15 80V55Z" fill="#166CC2"/>
<path d="M31 31C31 28.7909 32.7909 27 35 27H60C62.2091 27 64 28.7909 64 31V84H31V31Z" fill="#4899EA"/>
<path d="M64 51H93C95.2091 51 97 52.7909 97 55V80C97 82.2091 95.2091 84 93 84H64V51Z" fill="#76B2EF"/>
</svg>
